<?xml version="1.0" encoding="utf-8"?>
<!-- Generated by Mocodo 4.3.2 -->
<svg width="714" height="562" viewBox="0 0 714 562" xmlns="http://www.w3.org/2000/svg">
<rect x="0" y="0" width="714" height="562" fill="#ffffbf" stroke="none" stroke-width="0"/>

<!-- Association CONSOMME -->
<g class="page_0_4da1d006 diagram_page" visibility="visible">
	<line x1="123" y1="281" x2="313" y2="281" stroke="#66bd63" stroke-width="2"/>
	<line x1="431" y1="281" x2="313" y2="281" stroke="#66bd63" stroke-width="2"/>
	<g>
		<path d="M343 256 a14 14 90 0 1 14 14 V281 h-88 V270 a14 14 90 0 1 14 -14" fill="#a6d96a" stroke="#a6d96a" stroke-width="0"/>
		<path d="M357 281 v11 a14 14 90 0 1 -14 14 H283 a14 14 90 0 1 -14 -14 V281 H88" fill="#d9ef8b" stroke="#d9ef8b" stroke-width="0"/>
		<rect x="269" y="256" width="88" height="50" fill="none" rx="14" stroke="#66bd63" stroke-width="2"/>
		<line x1="269" y1="281" x2="357" y2="281" stroke="#66bd63" stroke-width="1"/>
		<text x="277" y="273.75" fill="#000000" font-family="Verdana" font-size="12">CONSOMME</text>
		<text x="276" y="298.8" fill="#000000" font-family="Verdana" font-size="12">taux</text>
	</g>
	<text x="242" y="298" fill="#d73027" font-family="Verdana" font-size="12" onmouseover="show_4da1d006(evt,'responsable')" onmouseout="hide_4da1d006(evt)" style="cursor: pointer;">1,N</text>
	<text x="362" y="298" fill="#d73027" font-family="Verdana" font-size="12">1,N</text>
</g>

<!-- Association PHOTO_DE -->
<g class="page_0_4da1d006 diagram_page" visibility="visible">
	<line x1="431" y1="281" x2="546" y2="281" stroke="#66bd63" stroke-width="2"/>
	<line x1="662" y1="281" x2="546" y2="281" stroke="#66bd63" stroke-width="2"/>
	<g>
		<path d="M573 256 a14 14 90 0 1 14 14 V281 h-82 V270 a14 14 90 0 1 14 -14" fill="#a6d96a" stroke="#a6d96a" stroke-width="0"/>
		<path d="M587 281 v11 a14 14 90 0 1 -14 14 H519 a14 14 90 0 1 -14 -14 V281 H82" fill="#d9ef8b" stroke="#d9ef8b" stroke-width="0"/>
		<rect x="505" y="256" width="82" height="50" fill="none" rx="14" stroke="#66bd63" stroke-width="2"/>
		<line x1="505" y1="281" x2="587" y2="281" stroke="#66bd63" stroke-width="1"/>
		<text x="512" y="273.75" fill="#000000" font-family="Verdana" font-size="12">PHOTO_DE</text>
	</g>
	<text x="478" y="298" fill="#d73027" font-family="Verdana" font-size="12">1,N</text>
	<text x="593" y="298" fill="#d73027" font-family="Verdana" font-size="12">0,1</text>
</g>

<!-- Entity MUNICIPALITES -->
<g class="page_0_4da1d006 diagram_page" visibility="visible">
	<g>
		<rect x="9" y="9" width="228" height="25" fill="#fdae61" stroke="none" stroke-width="0" opacity="1"/>
		<rect x="9" y="34" width="228" height="519" fill="#fee08b" stroke="none" stroke-width="0" opacity="1"/>
		<rect x="9" y="9" width="228" height="544" fill="none" stroke="#f46d43" stroke-width="2" opacity="1"/>
		<line x1="9" y1="34" x2="237" y2="34" stroke="#f46d43" stroke-width="1"/>
	</g>
	<text x="74" y="26.75" fill="#000000" font-family="Verdana" font-size="12">MUNICIPALITÉS</text>
	<text x="14" y="51.8" fill="#000000" font-family="Verdana" font-size="12">id_municipalite</text>
	<line x1="14" y1="54" x2="106" y2="54" stroke="#000000" stroke-width="1"/>
	<text x="14" y="68.8" fill="#000000" font-family="Verdana" font-size="12">region</text>
	<text x="14" y="85.8" fill="#000000" font-family="Verdana" font-size="12">province</text>
	<text x="14" y="102.8" fill="#000000" font-family="Verdana" font-size="12">nom</text>
	<text x="14" y="119.8" fill="#000000" font-family="Verdana" font-size="12">cout_total_habitant</text>
	<text x="14" y="136.8" fill="#000000" font-family="Verdana" font-size="12">cout_dechets_non_tries</text>
	<text x="14" y="153.8" fill="#000000" font-family="Verdana" font-size="12">cout_dechets_tries</text>
	<text x="14" y="170.8" fill="#000000" font-family="Verdana" font-size="12">superficie</text>
	<text x="14" y="187.8" fill="#000000" font-family="Verdana" font-size="12">nb_habitant</text>
	<text x="14" y="204.8" fill="#000000" font-family="Verdana" font-size="12">altitude</text>
	<text x="14" y="221.8" fill="#000000" font-family="Verdana" font-size="12">ile</text>
	<text x="14" y="238.8" fill="#000000" font-family="Verdana" font-size="12">bord_de_mer</text>
	<text x="14" y="255.8" fill="#000000" font-family="Verdana" font-size="12">densite_population</text>
	<text x="14" y="272.8" fill="#000000" font-family="Verdana" font-size="12">quantite_dechets_km</text>
	<text x="14" y="289.8" fill="#000000" font-family="Verdana" font-size="12">indice_urbanisation</text>
	<text x="14" y="306.8" fill="#000000" font-family="Verdana" font-size="12">tarification_dechets</text>
	<text x="14" y="323.8" fill="#000000" font-family="Verdana" font-size="12">redevance_incitative</text>
	<text x="14" y="340.8" fill="#000000" font-family="Verdana" font-size="12">utilisation_redevance</text>
	<text x="14" y="357.8" fill="#000000" font-family="Verdana" font-size="12">quantite_dechets_tries_kg</text>
	<text x="14" y="374.8" fill="#000000" font-family="Verdana" font-size="12">quantite_dechets_non_tries_kg</text>
	<text x="14" y="391.8" fill="#000000" font-family="Verdana" font-size="12">quantite_totale_dechets_kg</text>
	<text x="14" y="408.8" fill="#000000" font-family="Verdana" font-size="12">taux_dechets_tries</text>
	<text x="14" y="425.8" fill="#000000" font-family="Verdana" font-size="12">geographie</text>
	<text x="14" y="442.8" fill="#000000" font-family="Verdana" font-size="12">longueur_route</text>
	<text x="14" y="459.8" fill="#000000" font-family="Verdana" font-size="12">part_dechets_usine_valorisation</text>
	<text x="14" y="476.8" fill="#000000" font-family="Verdana" font-size="12">part_dechets_decharge</text>
	<text x="14" y="493.8" fill="#000000" font-family="Verdana" font-size="12">niveau_revenus_habitants</text>
	<text x="14" y="510.8" fill="#000000" font-family="Verdana" font-size="12">rapport_nbhab_routes</text>
	<text x="14" y="527.8" fill="#000000" font-family="Verdana" font-size="12">revenu_moyen_imposable_habitant</text>
	<text x="14" y="544.8" fill="#000000" font-family="Verdana" font-size="12">revenus_municipalite</text>
</g>

<!-- Entity MATERIAUX -->
<g class="page_0_4da1d006 diagram_page" visibility="visible">
	<g>
		<rect x="389" y="247" width="84" height="25" fill="#fdae61" stroke="none" stroke-width="0" opacity="1"/>
		<rect x="389" y="272" width="84" height="43" fill="#fee08b" stroke="none" stroke-width="0" opacity="1"/>
		<rect x="389" y="247" width="84" height="68" fill="none" stroke="#f46d43" stroke-width="2" opacity="1"/>
		<line x1="389" y1="272" x2="473" y2="272" stroke="#f46d43" stroke-width="1"/>
	</g>
	<text x="395" y="264.75" fill="#000000" font-family="Verdana" font-size="12">MATÉRIAUX</text>
	<text x="394" y="289.8" fill="#000000" font-family="Verdana" font-size="12">id_materiau</text>
	<line x1="394" y1="292" x2="467" y2="292" stroke="#000000" stroke-width="1"/>
	<text x="394" y="306.8" fill="#000000" font-family="Verdana" font-size="12">nom</text>
</g>

<!-- Entity IMAGE -->
<g class="page_0_4da1d006 diagram_page" visibility="visible">
	<g>
		<rect x="619" y="230" width="86" height="25" fill="#fdae61" stroke="none" stroke-width="0" opacity="1"/>
		<rect x="619" y="255" width="86" height="77" fill="#fee08b" stroke="none" stroke-width="0" opacity="1"/>
		<rect x="619" y="230" width="86" height="102" fill="none" stroke="#f46d43" stroke-width="2" opacity="1"/>
		<line x1="619" y1="255" x2="705" y2="255" stroke="#f46d43" stroke-width="1"/>
	</g>
	<text x="642" y="247.75" fill="#000000" font-family="Verdana" font-size="12">IMAGE</text>
	<text x="624" y="272.8" fill="#000000" font-family="Verdana" font-size="12">id_image</text>
	<line x1="624" y1="275" x2="680" y2="275" stroke="#000000" stroke-width="1"/>
	<text x="624" y="289.8" fill="#000000" font-family="Verdana" font-size="12">id_materiau</text>
	<text x="624" y="306.8" fill="#000000" font-family="Verdana" font-size="12">nom</text>
	<text x="624" y="323.8" fill="#000000" font-family="Verdana" font-size="12">chemin_img</text>
</g>

<!-- Notes -->
<script type="text/ecmascript">
<![CDATA[
	function show_4da1d006(evt, text) {
		var pos = (evt.target.getAttribute("y") < 517) ? "bottom" : "top";
		var note = document.getElementById(pos + "_note_4da1d006");
		note.textContent = text;
		note.setAttributeNS(null, "visibility", "visible");
		document.getElementById(pos + "_overlay_4da1d006").setAttributeNS(null, "visibility", "visible");
	}
	function hide_4da1d006(evt) {
		document.getElementById("top_note_4da1d006").setAttributeNS(null, "visibility", "hidden");
		document.getElementById("top_overlay_4da1d006").setAttributeNS(null, "visibility", "hidden");
		document.getElementById("bottom_note_4da1d006").setAttributeNS(null, "visibility", "hidden");
		document.getElementById("bottom_overlay_4da1d006").setAttributeNS(null, "visibility", "hidden");
	}
]]>
</script>
<rect id="top_overlay_4da1d006" x="0" y="0" width="100%" height="40" fill="#1a9850" stroke-width="0" opacity="0.9" visibility="hidden"/>
<text id="top_note_4da1d006" text-anchor="middle" x="357" y="24" fill="#ffffbf" font-family="Verdana" font-size="14" visibility="hidden"></text>
<rect id="bottom_overlay_4da1d006" x="0" y="522" width="100%" height="40" fill="#1a9850" stroke-width="0" opacity="0.9" visibility="hidden"/>
<text id="bottom_note_4da1d006" text-anchor="middle" x="357" y="546" fill="#ffffbf" font-family="Verdana" font-size="14" visibility="hidden"></text>
</svg>